<?xml version="1.0" standalone="no"?>
<!DOCTYPE svg PUBLIC "-//W3C//DTD SVG 20010904//EN"
 "http://www.w3.org/TR/2001/REC-SVG-20010904/DTD/svg10.dtd">
<svg version="1.0" xmlns="http://www.w3.org/2000/svg"
 width="471.000000pt" height="471.000000pt" viewBox="0 0 471.000000 471.000000"
 preserveAspectRatio="xMidYMid meet">
<metadata>
Created by potrace 1.11, written by Peter Selinger 2001-2013
</metadata>
<g transform="translate(0.000000,471.000000) scale(0.100000,-0.100000)"
fill="#000000" stroke="none">
<path d="M1175 3540 l-1170 -1170 1173 -1173 1172 -1172 1170 1170 1170 1170
-1173 1173 -1172 1172 -1170 -1170z m2193 -2187 l-1018 -1018 -1015 1015
-1015 1015 1017 1017 1018 1018 1015 -1015 1015 -1015 -1017 -1017z"/>
<path d="M2255 3214 c-79 -13 -199 -50 -281 -89 -292 -136 -473 -395 -502
-719 -35 -385 151 -730 480 -893 166 -82 303 -108 516 -101 264 10 468 94 627
258 l50 51 -110 105 c-160 152 -144 146 -211 85 -108 -96 -248 -151 -384 -151
-261 0 -464 150 -535 394 -22 77 -23 230 -2 313 67 257 291 416 567 400 139
-8 257 -59 365 -158 l45 -41 31 26 c60 51 229 210 229 215 0 4 -24 30 -52 60
-99 101 -239 179 -393 221 -63 17 -115 22 -245 25 -91 2 -178 1 -195 -1z"/>
</g>
</svg>
