<?xml version="1.0" standalone="no"?>
<!DOCTYPE svg PUBLIC "-//W3C//DTD SVG 20010904//EN"
 "http://www.w3.org/TR/2001/REC-SVG-20010904/DTD/svg10.dtd">
<svg version="1.0" xmlns="http://www.w3.org/2000/svg"
 width="471.000000pt" height="471.000000pt" viewBox="0 0 471.000000 471.000000"
 preserveAspectRatio="xMidYMid meet">
<metadata>
Created by potrace 1.11, written by Peter Selinger 2001-2013
</metadata>
<g transform="translate(0.000000,471.000000) scale(0.100000,-0.100000)"
fill="#000000" stroke="none">
<path d="M1180 3535 l-1165 -1165 1168 -1168 1167 -1167 1167 1167 1168 1168
-1165 1165 c-641 641 -1167 1165 -1170 1165 -3 0 -529 -524 -1170 -1165z
m2193 -153 l1017 -1017 -1020 -1020 -1020 -1020 -1020 1020 -1020 1020 1017
1017 c560 560 1020 1018 1023 1018 3 0 463 -458 1023 -1018z"/>
<path d="M2242 3206 c-245 -47 -448 -161 -582 -329 -64 -80 -133 -220 -162
-327 -32 -122 -32 -347 0 -470 111 -425 506 -693 982 -667 243 13 457 103 605
254 l55 55 -78 72 c-42 40 -101 94 -130 120 l-52 49 -58 -55 c-62 -60 -156
-113 -237 -134 -67 -18 -227 -18 -300 1 -246 63 -405 275 -405 540 0 324 230
555 552 556 169 0 297 -50 408 -161 l41 -41 125 117 c74 69 124 123 122 132
-6 31 -157 149 -250 196 -133 67 -260 97 -428 102 -89 2 -160 -1 -208 -10z"/>
</g>
</svg>
